<svg width="374" height="279" viewBox="0 0 374 279" fill="none" xmlns="http://www.w3.org/2000/svg">
<g clip-path="url(#clip0_10_99)">
<path d="M111 162.317C111 95.3812 146.457 83.6333 190.194 83.6333C244.641 77.3495 272.827 118.861 272.827 162.317C282.176 217.504 233.932 241 190.194 241C146.457 241 111 205.772 111 162.317Z" fill="url(#paint0_linear_10_99)"/>
<g clip-path="url(#clip1_10_99)">
<path d="M115 231.522C115 226.862 117.61 226.044 120.83 226.044C124.839 225.607 126.914 228.497 126.914 231.522C127.602 235.364 124.05 237 120.83 237C117.61 237 115 234.547 115 231.522Z" fill="url(#paint1_linear_10_99)"/>
</g>
</g>
<g clip-path="url(#clip2_10_99)">
<path d="M67 89.5461C67 79.8023 72.2206 78.0922 78.6605 78.0922C86.6771 77.1775 90.8272 83.2203 90.8272 89.5461C92.2038 97.5797 85.1005 101 78.6605 101C72.2206 101 67 95.8719 67 89.5461Z" fill="url(#paint2_linear_10_99)"/>
</g>
<g clip-path="url(#clip3_10_99)">
<path d="M239 58.5461C239 48.8023 244.221 47.0922 250.661 47.0922C258.677 46.1775 262.827 52.2203 262.827 58.5461C264.204 66.5797 257.1 70 250.661 70C244.221 70 239 64.8719 239 58.5461Z" fill="url(#paint3_linear_10_99)"/>
</g>
<g clip-path="url(#clip4_10_99)">
<path d="M228 18.522C228 13.862 230.393 13.0441 233.344 13.0441C237.019 12.6066 238.921 15.4967 238.921 18.522C239.552 22.3642 236.296 24 233.344 24C230.393 24 228 21.5474 228 18.522Z" fill="url(#paint4_linear_10_99)"/>
</g>
<g filter="url(#filter0_d_10_99)">
<g clip-path="url(#clip5_10_99)">
<rect x="144.742" y="260.178" width="108" height="108" rx="8" transform="rotate(-84.1434 144.742 260.178)" fill="white"/>
<path d="M185.465 199.2L183.257 220.718L221.922 224.684L224.129 203.166L185.465 199.2Z" fill="#FF5F00"/>
<path d="M202.73 221.335C194.874 220.529 188.284 216.125 184.358 209.993C180.651 213.824 178.131 218.88 177.542 224.619C176.148 238.212 186.018 250.339 199.612 251.733C213.205 253.127 225.332 243.257 226.726 229.664C227.315 223.925 225.873 218.462 223.022 213.959C218 219.173 210.585 222.14 202.73 221.335Z" fill="#EB001B"/>
<path d="M207.775 172.151C221.369 173.545 231.239 185.671 229.844 199.265C229.256 205.003 226.735 210.06 223.029 213.891C219.109 207.69 212.512 203.355 204.657 202.549C196.801 201.743 189.455 204.717 184.365 209.925C181.513 205.421 180.072 199.958 180.66 194.22C182.054 180.626 194.249 170.763 207.775 172.151Z" fill="#F79E1B"/>
</g>
</g>
<g clip-path="url(#clip6_10_99)">
<path d="M277 193.068C277 178.664 285.048 176.136 294.977 176.136C307.336 174.784 313.734 183.717 313.734 193.068C315.856 204.944 304.905 210 294.977 210C285.048 210 277 202.419 277 193.068Z" fill="url(#paint5_linear_10_99)"/>
</g>
<g filter="url(#filter1_d_10_99)">
<g clip-path="url(#clip7_10_99)">
<rect x="137.496" y="-6.10352e-05" width="108" height="108" rx="8" transform="rotate(21.4507 137.496 -6.10352e-05)" fill="white"/>
<g clip-path="url(#clip8_10_99)">
<path d="M157.739 79.3823C158.065 79.1655 158.39 78.977 158.759 78.8647C159.956 78.5005 161.274 78.9677 161.885 79.9868C162.279 80.6447 162.293 81.3518 162.127 82.0767C162.053 82.3976 161.941 82.7066 161.82 83.0127C161.323 84.2746 160.826 85.536 160.334 86.7999C160.288 86.9185 160.244 86.9652 160.117 86.9004C159.991 86.8364 159.856 86.7864 159.721 86.7449C159.595 86.7066 159.57 86.6547 159.621 86.5271C159.91 85.8115 160.189 85.0924 160.47 84.3738C160.739 83.687 161.014 83.0028 161.268 82.3105C161.432 81.865 161.501 81.3995 161.427 80.9229C161.306 80.1393 160.815 79.6658 160.091 79.4447C159.11 79.1448 158.274 79.4491 157.568 80.1617C157.368 80.3635 157.255 80.62 157.153 80.8773C156.622 82.2168 156.094 83.5579 155.575 84.9019C155.513 85.0608 155.451 85.0856 155.308 85.0118C155.188 84.9498 155.058 84.9026 154.928 84.8625C154.815 84.8276 154.801 84.7695 154.854 84.6758C154.864 84.6558 154.87 84.6333 154.879 84.6123C155.997 81.766 157.115 78.9197 158.234 76.0734C158.323 75.8457 158.283 75.8667 158.517 75.9553C158.633 75.9997 158.747 76.0559 158.866 76.0896C158.996 76.1263 158.997 76.1859 158.952 76.2992C158.564 77.2744 158.182 78.252 157.798 79.2289C157.778 79.2803 157.757 79.3323 157.737 79.3837L157.739 79.3823Z" fill="#FFCA07"/>
<path d="M128.599 70.4475C127.807 70.1362 127.014 69.8281 126.224 69.5104C126.089 69.4558 126.043 69.4817 125.998 69.6166C125.81 70.1913 125.674 70.7727 125.739 71.3841C125.837 72.3145 126.329 72.9767 127.15 73.3914C127.866 73.7542 128.628 73.9654 129.442 73.9192C129.538 73.9137 129.562 73.9461 129.554 74.0328C129.544 74.1227 129.543 74.2137 129.535 74.3038C129.513 74.5625 129.569 74.5285 129.285 74.5416C128.794 74.5645 128.314 74.4764 127.843 74.3441C127.233 74.1732 126.65 73.9414 126.153 73.5345C125.392 72.911 124.979 72.0978 124.984 71.1221C124.992 69.5414 125.609 68.2159 126.868 67.2476C128.044 66.3437 129.682 66.4336 130.798 67.4008C131.373 67.9001 131.621 68.5525 131.654 69.2977C131.684 69.9787 131.535 70.6257 131.27 71.248C131.18 71.4606 131.174 71.4583 130.961 71.3748C130.174 71.0655 129.387 70.7562 128.6 70.4471L128.599 70.4475ZM128.491 69.7576C129.178 70.0273 129.864 70.2949 130.549 70.5684C130.66 70.6126 130.708 70.6024 130.735 70.4758C130.77 70.3044 130.837 70.1398 130.872 69.9681C130.98 69.429 130.982 68.8924 130.718 68.3946C130.222 67.4609 128.993 66.9999 127.996 67.3642C127.294 67.6211 126.805 68.1233 126.409 68.738C126.312 68.8881 126.357 68.9226 126.496 68.9759C127.163 69.2314 127.827 69.4961 128.492 69.7573L128.491 69.7576Z" fill="#FFCA07"/>
<path d="M146.933 80.5946C146.496 80.8733 146.02 81.0414 145.497 81.0616C144.829 81.0877 144.215 80.9159 143.671 80.5285C142.823 79.9262 142.6 78.7928 143.116 77.8727C143.57 77.0618 144.28 76.6986 145.176 76.6405C145.875 76.5947 146.551 76.7298 147.218 76.9266C147.511 77.0135 147.801 77.1133 148.084 77.231C148.149 77.2582 148.202 77.2864 148.242 77.1862C148.4 76.7828 148.525 76.3732 148.518 75.9341C148.508 75.2941 148.2 74.8317 147.647 74.5382C146.967 74.1771 146.242 74.0397 145.477 74.1886C145.391 74.2055 145.346 74.1942 145.353 74.096C145.355 74.0624 145.353 74.0278 145.351 73.9942C145.34 73.5885 145.34 73.5849 145.755 73.5523C146.603 73.485 147.403 73.6536 148.141 74.079C149.009 74.5797 149.375 75.4062 149.212 76.4699C149.163 76.7959 149.073 77.1115 148.953 77.4188C148.52 78.5222 148.084 79.6243 147.66 80.7309C147.536 81.0529 147.425 81.3814 147.361 81.7222C147.337 81.8461 147.292 81.8686 147.181 81.8155C147.058 81.757 146.93 81.7069 146.801 81.6662C146.701 81.6356 146.684 81.5857 146.712 81.492C146.789 81.2317 146.861 80.9692 146.932 80.707C146.94 80.6738 146.979 80.6379 146.932 80.5937L146.933 80.5946ZM147.647 78.6967C147.742 78.4538 147.835 78.2096 147.935 77.9692C147.972 77.8805 147.957 77.8381 147.864 77.806C147.639 77.7292 147.418 77.6409 147.193 77.5635C146.644 77.3748 146.084 77.2383 145.498 77.2374C144.592 77.2371 143.995 77.6333 143.726 78.4384C143.547 78.9722 143.589 79.4792 143.996 79.9116C144.294 80.2279 144.682 80.3636 145.094 80.444C146.204 80.662 147.24 79.9618 147.468 79.1561C147.513 78.9985 147.587 78.8496 147.647 78.6961L147.647 78.6967Z" fill="#FFCA07"/>
<path d="M137.969 74.2381C137.67 75.0175 137.577 75.8079 137.859 76.6129C138.102 77.3042 138.569 77.8041 139.215 78.1364C139.86 78.468 140.548 78.6038 141.27 78.56C141.394 78.5523 141.435 78.5838 141.412 78.7021C141.408 78.7184 141.408 78.7358 141.407 78.753C141.39 79.2127 141.39 79.2164 140.922 79.1961C139.956 79.154 139.044 78.9201 138.265 78.3285C137.126 77.462 136.756 76.2826 136.997 74.9056C137.169 73.9279 137.594 73.0648 138.337 72.3857C139.304 71.5023 140.438 71.2459 141.701 71.5444C142.431 71.7169 143.079 72.0595 143.638 72.5631C143.939 72.8345 143.936 72.8384 143.654 73.1192C143.439 73.333 143.448 73.3233 143.235 73.1233C142.364 72.3043 141.356 71.8795 140.148 72.144C139.359 72.3165 138.793 72.8225 138.354 73.4821C138.197 73.719 138.075 73.9741 137.971 74.2386L137.969 74.2381Z" fill="#FFCA07"/>
<path d="M153.825 82.0119C153.371 83.1998 152.479 83.6997 151.414 83.5402C150.512 83.4055 149.759 82.9851 149.15 82.3036C149.052 82.194 149.049 82.1189 149.163 82.0276C149.286 81.9288 149.369 81.727 149.506 81.7194C149.636 81.712 149.711 81.9186 149.817 82.0254C150.316 82.5276 150.893 82.8737 151.613 82.9315C152.131 82.9732 152.57 82.8069 152.86 82.3605C153.175 81.8757 153.212 81.3653 152.918 80.85C152.725 80.5111 152.46 80.2321 152.177 79.9679C151.816 79.6297 151.487 79.2671 151.251 78.8249C150.657 77.7143 151.382 76.4679 152.492 76.2045C153.239 76.0275 153.917 76.2291 154.556 76.6077C154.836 76.7733 155.078 76.9842 155.284 77.2381C155.36 77.3316 155.391 77.3978 155.273 77.4833C155.182 77.5486 155.1 77.6315 155.028 77.7173C154.937 77.8245 154.885 77.8298 154.791 77.707C154.391 77.1873 153.865 76.8568 153.213 76.7655C152.712 76.6955 152.291 76.8682 152.007 77.2972C151.71 77.7464 151.703 78.2086 151.996 78.6701C152.224 79.0277 152.528 79.3169 152.83 79.6065C153.089 79.8539 153.332 80.1143 153.528 80.4159C153.906 80.9979 153.991 81.6121 153.825 82.0125L153.825 82.0119Z" fill="#FFCA07"/>
<path d="M134.34 72.5564C133.817 72.351 133.296 72.1412 132.77 71.9434C132.641 71.895 132.617 71.8399 132.677 71.7216C132.724 71.6315 132.763 71.5349 132.789 71.4368C132.827 71.2929 132.89 71.2677 133.032 71.3257C133.652 71.5781 134.277 71.8184 134.899 72.0631C135.316 72.2269 135.732 72.3953 136.151 72.5521C136.273 72.5976 136.299 72.6527 136.24 72.7642C136.165 72.9081 136.17 73.1356 136.03 73.1904C135.903 73.2402 135.737 73.1027 135.591 73.0457C135.173 72.8851 134.756 72.7192 134.339 72.5555L134.34 72.5564Z" fill="#FFCA07"/>
</g>
<path fill-rule="evenodd" clip-rule="evenodd" d="M191.852 60.9998C190.082 61.2939 185.914 61.9684 184.359 62.2183V62.2183C183.431 62.3209 181.58 61.7976 181.124 59.9984V59.9984C181.116 59.966 180.464 57.7402 180.436 57.6547V57.6547C180.416 57.5945 180.075 55.9492 178.187 55.1599V55.1599C177.908 55.0425 176.512 54.4851 174.832 54.7501V54.7501C172.597 55.1079 167.398 55.9418 167.398 55.9418V55.9418C167.397 55.9413 167.396 55.9435 167.394 55.9427V55.9427C165.257 56.2863 163.592 56.5534 163.592 56.5534V56.5534L164.393 59.2065C164.763 60.458 166.156 61.8611 167.958 61.5689V61.5689C167.958 61.5689 174.624 60.4611 174.647 60.4596V60.4596C177.501 60.0543 179.303 60.7621 180.305 61.7239V61.7239C181.194 62.6139 181.669 64.1478 181.669 64.1478V64.1478C181.669 64.1478 182.275 66.189 182.383 66.5467V66.5467C182.731 67.7022 184.016 67.8069 184.016 67.8069V67.8069C184.016 67.8069 184.461 67.9243 185.258 67.7829V67.7829C185.258 67.7829 191.716 66.7059 191.72 66.7062V66.7062C193.776 66.3524 195.372 66.7628 196.121 67.1425V67.1425C198.469 68.3291 198.535 70.3854 199.11 72.0276V72.0276C199.448 72.9939 199.849 73.6243 200.716 73.9411V73.9411C201.285 74.1505 202.061 74.0475 202.181 74.0206V74.0206L209.908 72.7485C209.908 72.7485 209.658 71.4967 208.953 69.4249V69.4249C208.321 67.5749 206.824 67.7112 205.626 67.8295V67.8295C205.123 67.8789 203.195 68.3255 201.406 68.4622V68.4622C200.13 68.5594 198.653 67.7988 198.232 66.3908V66.3908C198.207 66.3055 197.513 64.0628 197.452 63.7965V63.7965C197.182 62.8674 196.358 61.807 194.98 61.2658V61.2658C194.143 60.9368 193.1 60.7993 191.852 60.9998" fill="url(#paint6_linear_10_99)"/>
<path fill-rule="evenodd" clip-rule="evenodd" d="M131.379 54.0823C131.817 52.968 132.164 52.0251 132.433 51.1682L134.475 51.9706L134.008 53.4407L134.066 53.4632C134.826 52.8881 136.024 52.3255 137.603 52.9459C138.836 53.4301 139.516 54.5261 139.498 55.7582L139.538 55.7738C140.076 55.3657 140.616 55.1191 141.169 55.0134C141.837 54.8405 142.513 54.8751 143.283 55.1777C144.842 55.7903 145.99 57.5039 144.771 60.6068L142.529 66.3139L140.219 65.4063L142.32 60.0577C142.953 58.447 142.79 57.2797 141.655 56.8337C140.845 56.5154 140.013 56.8783 139.491 57.477C139.339 57.692 139.164 57.9679 139.055 58.2443L136.773 64.0524L134.462 63.1444L136.666 57.5364C137.196 56.1852 137.053 55.0254 135.955 54.5942C135.07 54.2461 134.192 54.729 133.714 55.3203C133.523 55.5224 133.375 55.7848 133.266 56.0626L131.016 61.7902L128.707 60.883L131.379 54.0823Z" fill="#003A70"/>
<path fill-rule="evenodd" clip-rule="evenodd" d="M152.443 67.5243C152.099 68.3988 151.802 69.2676 151.664 69.9037L149.526 69.0638L149.794 67.9299L149.736 67.9069C148.861 68.4365 147.669 68.5868 146.456 68.1102C144.569 67.3687 144.065 65.5421 144.643 64.0696C145.605 61.6227 148.187 61.2151 151.645 62.5965L151.707 62.4368C151.957 61.8002 152.121 60.6485 150.465 59.998C149.541 59.6347 148.46 59.5549 147.662 59.7223L147.823 57.9509C148.69 57.7854 150.068 57.8443 151.55 58.4263C154.554 59.6068 154.646 61.9171 153.818 64.0241L152.443 67.5243ZM151.077 64.2102C149.418 63.512 147.672 63.2621 147.094 64.7339C146.719 65.6875 147.144 66.3604 147.895 66.6555C148.837 67.0257 149.781 66.6619 150.266 66.049C150.393 65.8926 150.491 65.7007 150.554 65.5422L151.077 64.2102Z" fill="#003A70"/>
<path fill-rule="evenodd" clip-rule="evenodd" d="M155.838 63.6929C156.276 62.5786 156.622 61.6351 156.894 60.7792L158.971 61.5955L158.517 63.0927L158.574 63.1151C159.275 62.5194 160.656 62.0038 162.215 62.6164C163.852 63.2596 165.116 65.0189 163.913 68.0821L161.655 73.829L159.287 72.8986L161.435 67.4309C161.983 66.0379 161.896 64.7869 160.606 64.28C159.663 63.9093 158.735 64.3484 158.195 64.9859C158.033 65.1754 157.895 65.4665 157.787 65.743L155.552 71.431L153.166 70.4936L155.838 63.6929Z" fill="#003A70"/>
<path fill-rule="evenodd" clip-rule="evenodd" d="M177.256 64.2879L172.992 75.1381C172.602 76.1322 172.217 77.2229 171.998 77.8935L169.88 77.0613L170.387 75.4931L170.348 75.4777C169.367 76.3325 167.964 76.561 166.598 76.0245C164.366 75.1474 163.368 72.4829 164.54 69.4999C165.794 66.2504 168.516 65.0925 170.768 65.9775C172.058 66.4842 172.763 67.4052 172.905 68.2878L172.944 68.3031L174.887 63.3573L177.256 64.2879ZM171.773 71.2841C171.85 71.0873 171.924 70.8397 171.965 70.6269C172.128 69.589 171.682 68.5178 170.603 68.0941C169.083 67.4965 167.688 68.5564 166.977 70.3661C166.282 72.1354 166.621 73.7612 168.123 74.3512C169.085 74.7293 170.198 74.3864 170.843 73.4234C170.987 73.2262 171.1 72.9957 171.202 72.7362L171.773 71.2841Z" fill="#003A70"/>
<path fill-rule="evenodd" clip-rule="evenodd" d="M173.595 78.5203L175.984 79.4593L179.789 69.7759L177.399 68.8369L173.595 78.5203Z" fill="#003A70"/>
<path fill-rule="evenodd" clip-rule="evenodd" d="M180.236 73.5547C180.752 72.2428 181.099 71.299 181.385 70.4022L183.446 71.2118L182.795 73.0902L182.875 73.1216C183.875 71.9307 185.16 71.8853 186.161 72.2785C186.391 72.3691 186.542 72.3813 186.719 72.4979L185.875 74.6462C185.697 74.5306 185.502 74.4079 185.213 74.2944C184.077 73.8482 183.01 74.3003 182.369 75.3102C182.245 75.5144 182.104 75.7587 181.995 76.0384L180.026 81.0479L177.658 80.1173L180.236 73.5547Z" fill="#003A70"/>
<path fill-rule="evenodd" clip-rule="evenodd" d="M184.012 82.6132L186.398 83.5508L190.203 73.8674L187.816 72.9298L184.012 82.6132Z" fill="#003A70"/>
</g>
</g>
<g filter="url(#filter2_d_10_99)">
<g clip-path="url(#clip9_10_99)">
<rect x="2" y="140.353" width="108" height="108" rx="8" transform="rotate(-21.3695 2 140.353)" fill="white"/>
<path d="M74.6169 178.73C85.7257 174.383 91.2076 161.854 86.8609 150.745C82.5142 139.636 69.985 134.154 58.8761 138.501C47.7672 142.848 42.2854 155.377 46.6321 166.486C50.9788 177.595 63.508 183.077 74.6169 178.73Z" fill="#00AED6"/>
<path fill-rule="evenodd" clip-rule="evenodd" d="M78.2504 153.438C77.099 150.989 74.1329 149.83 71.6842 150.982L58.9451 155.966C58.4422 156.163 57.9758 155.959 57.779 155.456C57.5823 154.953 57.7863 154.487 58.2892 154.29L71.1959 149.24C70.4563 147.596 68.5105 146.328 66.8197 146.7C62.7859 147.505 58.9306 149.014 55.5053 151.127C53.5413 152.282 52.7687 155 53.2205 157.143C54.1751 161.312 55.7492 165.335 57.8771 169.044C59.1816 171.143 61.7469 172.265 64.2247 171.682C69.1476 170.433 73.841 168.596 78.221 166.206C80.2179 165.135 80.8046 162.682 80.4366 160.507C79.9374 157.996 79.2196 155.668 78.2504 153.438ZM75.1421 157.843L75.4372 158.597C75.634 159.1 75.4299 159.567 74.9271 159.763C74.4242 159.96 73.9578 159.756 73.761 159.253L73.4659 158.499C73.1161 158.346 72.8173 158.076 72.6861 157.741C72.4238 157.071 72.7809 156.254 73.4514 155.992C74.1219 155.73 74.9381 156.087 75.2004 156.757C75.3316 157.093 75.2951 157.493 75.1421 157.843Z" fill="white"/>
<path d="M52.1481 210.715C53.4781 211.645 55.1652 211.758 56.641 211.084C58.401 210.395 59.2318 208.813 58.6415 207.305L58.3136 206.467C57.7524 207.749 56.6082 208.777 55.2345 209.218C51.9987 210.581 48.3329 209.116 46.9702 205.88C45.6075 202.644 47.0724 198.978 50.3082 197.616C50.392 197.583 50.4758 197.55 50.5596 197.517C51.8678 196.909 53.4055 196.887 54.7719 197.415L54.3456 196.326L57.3628 195.145L61.6259 206.041C62.872 209.225 61.2104 212.388 57.6903 213.765C55.4093 214.851 52.8367 214.698 50.6066 213.445L52.1481 210.715ZM56.1966 201.303C55.7047 200.046 53.8208 199.43 52.2284 200.053C50.217 200.84 49.3679 202.622 50.0894 204.466C50.6287 206.091 52.3595 207.057 54.1013 206.569C54.2689 206.503 54.4365 206.438 54.6041 206.372C56.3641 205.683 57.3626 204.036 56.8379 202.695L56.2804 201.271L56.1966 201.303Z" fill="black"/>
<path d="M65.1098 191.727C68.7975 190.285 72.4122 191.866 73.7239 195.218C75.0356 198.571 73.3703 202.218 69.7665 203.628C66.5635 205.075 62.7301 203.676 61.2836 200.473C59.837 197.27 61.1525 193.469 64.3555 192.023C64.607 191.924 64.8584 191.826 65.1098 191.727ZM66.192 194.493C64.432 195.182 63.5647 197.164 64.2534 198.924C64.942 200.684 66.9243 201.551 68.6843 200.863C70.4443 200.174 71.3116 198.192 70.6229 196.432C70.0509 194.723 68.1524 193.823 66.5273 194.362C66.3596 194.428 66.2758 194.46 66.192 194.493Z" fill="black"/>
<path d="M73.2869 188.914L76.3041 187.734L76.6976 188.74L76.7814 188.707C77.4264 187.391 78.5196 186.48 79.8606 185.956C83.1619 184.761 86.8094 186.426 88.0046 189.727C89.1669 192.945 87.6364 196.443 84.4844 197.773C83.2273 198.265 81.8061 198.338 80.5053 197.977L80.4215 198.01L82.6186 203.625L79.5176 204.838L73.2869 188.914ZM80.3561 188.951C78.6799 189.607 77.798 191.305 78.2899 192.562L78.8474 193.987C79.3721 195.328 81.1394 195.893 82.8994 195.204C84.6594 194.515 85.5267 192.533 84.7542 190.806C84.0983 189.13 82.1161 188.262 80.3561 188.951Z" fill="black"/>
<path d="M93.4121 186.258C95.3251 185.22 95.8644 184.622 95.6349 184.036C95.3397 183.281 94.4215 183.158 93.1643 183.649C91.8744 184.058 90.9452 185.388 91.1856 186.743L88.0227 187.304C87.5564 184.877 89.2472 182.283 92.1805 181.135C95.4491 179.856 98.1164 180.745 99.1658 183.427L101.953 190.551L99.0199 191.699L98.528 190.442C98.0324 191.892 96.8372 193.036 95.3468 193.426C92.9163 194.377 90.6316 193.725 89.8446 191.713C89.0575 189.702 90.005 188.171 93.4121 186.258ZM96.7207 186.317C96.5494 186.867 96.0611 187.348 94.6509 188.19C92.9383 189.246 92.399 189.844 92.6613 190.515C92.9237 191.185 93.6415 191.291 94.8149 190.832C96.5749 190.143 97.6717 188.747 97.2454 187.658L96.7207 186.317Z" fill="black"/>
<path d="M107.255 187.8L98.0107 179.24L101.447 177.896L107.736 183.843L107.82 183.81L108.319 175.207L111.756 173.862L110.276 192.803L106.756 194.181L107.255 187.8Z" fill="black"/>
</g>
</g>
<g filter="url(#filter3_d_10_99)">
<g clip-path="url(#clip10_10_99)">
<rect x="239" y="88.9525" width="108" height="108" rx="8" transform="rotate(-15 239 88.9525)" fill="white"/>
<path d="M284.428 151.638C285.451 151.364 286.248 151.01 286.819 150.576C287.405 150.137 287.825 149.661 288.08 149.146C288.335 148.631 288.461 148.093 288.458 147.531C288.454 146.97 288.38 146.419 288.236 145.878C288.07 145.261 287.837 144.728 287.537 144.279C287.252 143.826 286.866 143.483 286.378 143.25C285.905 143.012 285.323 142.887 284.632 142.874C283.942 142.86 283.108 142.985 282.131 143.246L276.726 144.695L278.978 153.099L284.428 151.638ZM273.091 131.128L275.324 139.462L279.355 138.382C280.209 138.153 280.964 137.885 281.618 137.577C282.272 137.27 282.794 136.898 283.185 136.463C283.59 136.023 283.843 135.501 283.943 134.895C284.057 134.285 284.005 133.571 283.786 132.753C283.571 131.951 283.294 131.314 282.955 130.842C282.612 130.355 282.19 130.005 281.691 129.791C281.192 129.577 280.604 129.487 279.925 129.52C279.262 129.549 278.495 129.68 277.625 129.913L273.091 131.128ZM276.056 124.055C278.361 123.438 280.381 123.128 282.115 123.127C283.849 123.125 285.333 123.381 286.567 123.894C287.8 124.407 288.797 125.166 289.557 126.17C290.332 127.17 290.906 128.364 291.278 129.753C291.481 130.509 291.57 131.271 291.547 132.038C291.519 132.79 291.359 133.536 291.067 134.276C290.77 135.001 290.331 135.714 289.75 136.416C289.169 137.117 288.424 137.788 287.516 138.429C289.859 138.38 291.719 138.816 293.095 139.738C294.471 140.659 295.415 142.077 295.928 143.991C296.312 145.426 296.395 146.835 296.177 148.217C295.958 149.599 295.438 150.896 294.618 152.109C293.808 153.302 292.695 154.369 291.279 155.311C289.858 156.238 288.147 156.969 286.147 157.505L272.819 161.076L263.781 127.344L276.056 124.055Z" fill="#00A39D"/>
<path d="M315.233 120.932C315.103 121.363 314.934 121.706 314.724 121.961C314.529 122.211 314.233 122.389 313.836 122.496C313.485 122.59 313.074 122.584 312.604 122.479C312.145 122.354 311.619 122.222 311.026 122.084C310.448 121.941 309.801 121.85 309.087 121.81C308.369 121.755 307.59 121.84 306.75 122.065C305.3 122.453 304.3 123.06 303.752 123.884C303.215 124.689 303.089 125.623 303.374 126.687C303.556 127.365 303.92 127.871 304.468 128.203C305.015 128.536 305.675 128.772 306.449 128.912C307.238 129.047 308.113 129.135 309.073 129.175C310.044 129.196 311.04 129.251 312.062 129.341C313.08 129.415 314.092 129.557 315.097 129.767C316.118 129.973 317.064 130.33 317.937 130.84C318.826 131.346 319.618 132.042 320.314 132.93C321.005 133.802 321.539 134.939 321.915 136.342C322.332 137.899 322.456 139.428 322.285 140.928C322.114 142.427 321.653 143.823 320.903 145.115C320.164 146.387 319.125 147.516 317.786 148.503C316.458 149.47 314.847 150.207 312.954 150.715C311.916 150.993 310.826 151.169 309.684 151.244C308.558 151.314 307.439 151.292 306.328 151.177C305.213 151.046 304.14 150.829 303.11 150.527C302.08 150.224 301.148 149.83 300.314 149.343L301.625 145.075C301.738 144.764 301.917 144.485 302.162 144.238C302.417 143.971 302.721 143.79 303.072 143.696C303.53 143.574 304.027 143.597 304.564 143.768C305.115 143.934 305.729 144.116 306.404 144.315C307.095 144.51 307.861 144.652 308.702 144.741C309.544 144.829 310.484 144.734 311.522 144.456C312.927 144.079 313.936 143.479 314.549 142.653C315.159 141.813 315.281 140.714 314.918 139.357C314.707 138.571 314.322 137.989 313.762 137.61C313.203 137.231 312.528 136.974 311.739 136.838C310.966 136.699 310.103 136.624 309.151 136.615C308.2 136.605 307.219 136.579 306.209 136.535C305.195 136.477 304.188 136.35 303.187 136.156C302.182 135.946 301.233 135.58 300.34 135.059C299.459 134.519 298.662 133.774 297.95 132.825C297.233 131.86 296.664 130.592 296.243 129.019C295.904 127.755 295.826 126.454 296.007 125.117C296.189 123.779 296.642 122.509 297.367 121.307C298.092 120.105 299.091 119.036 300.362 118.101C301.629 117.15 303.178 116.429 305.01 115.938C306.033 115.664 307.048 115.483 308.055 115.395C309.074 115.287 310.061 115.278 311.018 115.369C311.971 115.444 312.882 115.605 313.749 115.852C314.628 116.079 315.44 116.39 316.184 116.786L315.233 120.932Z" fill="#00A39D"/>
<path fill-rule="evenodd" clip-rule="evenodd" d="M340.681 105.244C334.583 106.257 333.37 110.09 332.638 112.021C329.417 105.948 327.04 107.132 323.913 106.223C327.196 102.924 327.343 99.1243 326.54 96.5545C331.096 98.3262 333.672 97.3151 336.718 95.5285C336.39 100.85 337.792 101.952 340.681 105.244Z" fill="#F8AD3C"/>
<path d="M337.667 143.715L329.618 145.872L320.375 111.377C325.595 110.71 329.732 114.066 330.905 118.478L337.667 143.715Z" fill="#00A39D"/>
</g>
</g>
<defs>
<filter id="filter0_d_10_99" x="140.742" y="152.742" width="126.457" height="126.456" filterUnits="userSpaceOnUse" color-interpolation-filters="sRGB">
<feFlood flood-opacity="0" result="BackgroundImageFix"/>
<feColorMatrix in="SourceAlpha" type="matrix" values="0 0 0 0 0 0 0 0 0 0 0 0 0 0 0 0 0 0 127 0" result="hardAlpha"/>
<feOffset dy="4"/>
<feGaussianBlur stdDeviation="2"/>
<feComposite in2="hardAlpha" operator="out"/>
<feColorMatrix type="matrix" values="0 0 0 0 0 0 0 0 0 0 0 0 0 0 0 0 0 0 0.25 0"/>
<feBlend mode="normal" in2="BackgroundImageFix" result="effect1_dropShadow_10_99"/>
<feBlend mode="normal" in="SourceGraphic" in2="effect1_dropShadow_10_99" result="shape"/>
</filter>
<filter id="filter1_d_10_99" x="94" y="0" width="148.015" height="148.015" filterUnits="userSpaceOnUse" color-interpolation-filters="sRGB">
<feFlood flood-opacity="0" result="BackgroundImageFix"/>
<feColorMatrix in="SourceAlpha" type="matrix" values="0 0 0 0 0 0 0 0 0 0 0 0 0 0 0 0 0 0 127 0" result="hardAlpha"/>
<feOffset dy="4"/>
<feGaussianBlur stdDeviation="2"/>
<feComposite in2="hardAlpha" operator="out"/>
<feColorMatrix type="matrix" values="0 0 0 0 0 0 0 0 0 0 0 0 0 0 0 0 0 0 0.25 0"/>
<feBlend mode="normal" in2="BackgroundImageFix" result="effect1_dropShadow_10_99"/>
<feBlend mode="normal" in="SourceGraphic" in2="effect1_dropShadow_10_99" result="shape"/>
</filter>
<filter id="filter2_d_10_99" x="-2" y="101" width="147.928" height="147.928" filterUnits="userSpaceOnUse" color-interpolation-filters="sRGB">
<feFlood flood-opacity="0" result="BackgroundImageFix"/>
<feColorMatrix in="SourceAlpha" type="matrix" values="0 0 0 0 0 0 0 0 0 0 0 0 0 0 0 0 0 0 127 0" result="hardAlpha"/>
<feOffset dy="4"/>
<feGaussianBlur stdDeviation="2"/>
<feComposite in2="hardAlpha" operator="out"/>
<feColorMatrix type="matrix" values="0 0 0 0 0 0 0 0 0 0 0 0 0 0 0 0 0 0 0.25 0"/>
<feBlend mode="normal" in2="BackgroundImageFix" result="effect1_dropShadow_10_99"/>
<feBlend mode="normal" in="SourceGraphic" in2="effect1_dropShadow_10_99" result="shape"/>
</filter>
<filter id="filter3_d_10_99" x="235" y="61" width="140.272" height="140.272" filterUnits="userSpaceOnUse" color-interpolation-filters="sRGB">
<feFlood flood-opacity="0" result="BackgroundImageFix"/>
<feColorMatrix in="SourceAlpha" type="matrix" values="0 0 0 0 0 0 0 0 0 0 0 0 0 0 0 0 0 0 127 0" result="hardAlpha"/>
<feOffset dy="4"/>
<feGaussianBlur stdDeviation="2"/>
<feComposite in2="hardAlpha" operator="out"/>
<feColorMatrix type="matrix" values="0 0 0 0 0 0 0 0 0 0 0 0 0 0 0 0 0 0 0.25 0"/>
<feBlend mode="normal" in2="BackgroundImageFix" result="effect1_dropShadow_10_99"/>
<feBlend mode="normal" in="SourceGraphic" in2="effect1_dropShadow_10_99" result="shape"/>
</filter>
<linearGradient id="paint0_linear_10_99" x1="267.855" y1="241" x2="267.855" y2="86.6818" gradientUnits="userSpaceOnUse">
<stop stop-color="#FA709A"/>
<stop offset="1" stop-color="#FEE140"/>
</linearGradient>
<linearGradient id="paint1_linear_10_99" x1="126.548" y1="237" x2="126.548" y2="226.256" gradientUnits="userSpaceOnUse">
<stop stop-color="#FA709A"/>
<stop offset="1" stop-color="#FEE140"/>
</linearGradient>
<linearGradient id="paint2_linear_10_99" x1="90.0952" y1="101" x2="90.0952" y2="78.536" gradientUnits="userSpaceOnUse">
<stop stop-color="#FA709A"/>
<stop offset="1" stop-color="#FEE140"/>
</linearGradient>
<linearGradient id="paint3_linear_10_99" x1="262.095" y1="70" x2="262.095" y2="47.536" gradientUnits="userSpaceOnUse">
<stop stop-color="#FA709A"/>
<stop offset="1" stop-color="#FEE140"/>
</linearGradient>
<linearGradient id="paint4_linear_10_99" x1="238.585" y1="24" x2="238.585" y2="13.2563" gradientUnits="userSpaceOnUse">
<stop stop-color="#FA709A"/>
<stop offset="1" stop-color="#FEE140"/>
</linearGradient>
<linearGradient id="paint5_linear_10_99" x1="312.605" y1="210" x2="312.605" y2="176.792" gradientUnits="userSpaceOnUse">
<stop stop-color="#FA709A"/>
<stop offset="1" stop-color="#FEE140"/>
</linearGradient>
<linearGradient id="paint6_linear_10_99" x1="162.318" y1="59.7957" x2="207.952" y2="77.7262" gradientUnits="userSpaceOnUse">
<stop stop-color="#FFCA06"/>
<stop offset="0.330844" stop-color="#FBAA18"/>
<stop offset="0.694742" stop-color="#FFC907"/>
<stop offset="1" stop-color="#FAA619"/>
</linearGradient>
<clipPath id="clip0_10_99">
<rect width="163" height="158" fill="white" transform="translate(111 83)"/>
</clipPath>
<clipPath id="clip1_10_99">
<rect width="12" height="11" fill="white" transform="translate(115 226)"/>
</clipPath>
<clipPath id="clip2_10_99">
<rect width="24" height="23" fill="white" transform="translate(67 78)"/>
</clipPath>
<clipPath id="clip3_10_99">
<rect width="24" height="23" fill="white" transform="translate(239 47)"/>
</clipPath>
<clipPath id="clip4_10_99">
<rect width="11" height="11" fill="white" transform="translate(228 13)"/>
</clipPath>
<clipPath id="clip5_10_99">
<rect x="144.742" y="260.178" width="108" height="108" rx="30" transform="rotate(-84.1434 144.742 260.178)" fill="white"/>
</clipPath>
<clipPath id="clip6_10_99">
<rect width="37" height="34" fill="white" transform="translate(277 176)"/>
</clipPath>
<clipPath id="clip7_10_99">
<rect x="137.496" width="108" height="108" rx="20" transform="rotate(21.4507 137.496 0)" fill="white"/>
</clipPath>
<clipPath id="clip8_10_99">
<rect width="39" height="9.77965" fill="white" transform="translate(127.487 63.756) rotate(21.4507)"/>
</clipPath>
<clipPath id="clip9_10_99">
<rect x="2" y="140.353" width="108" height="108" rx="30" transform="rotate(-21.3695 2 140.353)" fill="white"/>
</clipPath>
<clipPath id="clip10_10_99">
<rect x="239" y="88.9525" width="108" height="108" rx="30" transform="rotate(-15 239 88.9525)" fill="white"/>
</clipPath>
</defs>
</svg>
